{
	"asset":{
		"generator":"Khronos glTF Blender I/O v3.6.28",
		"version":"2.0"
	},
	"extensionsUsed":[
		"KHR_materials_specular",
		"KHR_materials_ior",
		"KHR_texture_transform"
	],
	"extensionsRequired":[
		"KHR_texture_transform"
	],
	"scene":0,
	"scenes":[
		{
			"name":"Scene",
			"nodes":[
				1,
				6,
				7,
				8,
				9,
				11
			]
		}
	],
	"nodes":[
		{
			"mesh":0,
			"name":"Speaker",
			"translation":[
				-0.29762086272239685,
				0,
				-0.03803366422653198
			]
		},
		{
			"children":[
				0
			],
			"name":"Speaker PC"
		},
		{
			"mesh":1,
			"name":"Computer Stand",
			"rotation":[
				0.0036831831093877554,
				0,
				0,
				0.9999932050704956
			],
			"translation":[
				0,
				0.007632523775100708,
				-0.1263543963432312
			]
		},
		{
			"mesh":2,
			"name":"Keyboard",
			"rotation":[
				0.0021376435179263353,
				0,
				0,
				0.9999977350234985
			],
			"translation":[
				0,
				0.00354544585570693,
				-0.006451144814491272
			]
		},
		{
			"mesh":3,
			"name":"Mouse",
			"rotation":[
				0.004531656391918659,
				0,
				0,
				0.9999897480010986
			],
			"scale":[
				1.4792733192443848,
				1,
				1
			],
			"translation":[
				0.3005792200565338,
				0.013003443367779255,
				0.12016365677118301
			]
		},
		{
			"mesh":4,
			"name":"Screen",
			"rotation":[
				-0.028360990807414055,
				0,
				0,
				0.9995977878570557
			],
			"translation":[
				0,
				0.2928347885608673,
				-0.18173861503601074
			]
		},
		{
			"children":[
				2,
				3,
				4,
				5
			],
			"name":"Sci-fi Low Poly ComputervScreen"
		},
		{
			"mesh":5,
			"name":"Small desk",
			"rotation":[
				0,
				-1,
				0,
				1.6292068494294654e-07
			],
			"translation":[
				0,
				-0.6868372559547424,
				0.01833844743669033
			]
		},
		{
			"name":"Chair"
		},
		{
			"name":"Desk & Chair"
		},
		{
			"mesh":6,
			"name":"Plane",
			"rotation":[
				0,
				-0.694758951663971,
				0.7192427515983582,
				1.1319060888581589e-07
			],
			"scale":[
				0.14143918454647064,
				0.15336930751800537,
				0.10306260734796524
			],
			"translation":[
				0.002316713333129883,
				0.1526723951101303,
				0.6528622508049011
			]
		},
		{
			"children":[
				10
			],
			"name":"Gaming chair/chair"
		}
	],
	"materials":[
		{
			"doubleSided":true,
			"extensions":{
				"KHR_materials_specular":{
					"specularColorFactor":[
						0.711407312601205,
						0.711407312601205,
						0.711407312601205
					]
				},
				"KHR_materials_ior":{
					"ior":1.4500000476837158
				}
			},
			"name":"Speaker_mat",
			"normalTexture":{
				"index":0
			},
			"pbrMetallicRoughness":{
				"baseColorTexture":{
					"index":1
				},
				"metallicFactor":0,
				"metallicRoughnessTexture":{
					"index":2
				}
			}
		},
		{
			"doubleSided":true,
			"name":"Computer",
			"pbrMetallicRoughness":{
				"baseColorTexture":{
					"index":3
				},
				"metallicFactor":0,
				"roughnessFactor":0.5
			}
		},
		{
			"extensions":{
				"KHR_materials_specular":{
					"specularColorFactor":[
						0.14228146252024101,
						0.14228146252024101,
						0.14228146252024101
					]
				},
				"KHR_materials_ior":{
					"ior":1.4500000476837158
				}
			},
			"name":"Desk wood",
			"normalTexture":{
				"extensions":{
					"KHR_texture_transform":{
						"offset":[
							0,
							-1
						],
						"scale":[
							2,
							2
						]
					}
				},
				"index":4,
				"scale":0.75,
				"texCoord":1
			},
			"occlusionTexture":{
				"extensions":{
					"KHR_texture_transform":{
						"offset":[
							0,
							-1
						],
						"scale":[
							2,
							2
						]
					}
				},
				"index":5,
				"texCoord":1
			},
			"pbrMetallicRoughness":{
				"baseColorTexture":{
					"extensions":{
						"KHR_texture_transform":{
							"offset":[
								0,
								-1
							],
							"scale":[
								2,
								2
							]
						}
					},
					"index":6,
					"texCoord":1
				},
				"metallicFactor":0,
				"metallicRoughnessTexture":{
					"extensions":{
						"KHR_texture_transform":{
							"offset":[
								0,
								-1
							],
							"scale":[
								2,
								2
							]
						}
					},
					"index":5,
					"texCoord":1
				}
			}
		},
		{
			"doubleSided":true,
			"name":"black skin",
			"pbrMetallicRoughness":{
				"baseColorFactor":[
					0.00424113217741251,
					0.00424113217741251,
					0.00424113217741251,
					1
				],
				"metallicFactor":0
			}
		},
		{
			"doubleSided":true,
			"name":"outline",
			"pbrMetallicRoughness":{
				"baseColorFactor":[
					0.04572528973221779,
					0.5278448462486267,
					1,
					1
				],
				"metallicFactor":0,
				"roughnessFactor":0.699999988079071
			}
		},
		{
			"doubleSided":true,
			"name":"Material.021",
			"pbrMetallicRoughness":{
				"baseColorFactor":[
					0.04202645644545555,
					0.04202645644545555,
					0.04202645644545555,
					1
				],
				"roughnessFactor":0.4227053225040436
			}
		},
		{
			"doubleSided":true,
			"name":"Material.022",
			"pbrMetallicRoughness":{
				"baseColorFactor":[
					0,
					0,
					0,
					1
				],
				"metallicFactor":0,
				"roughnessFactor":0.804611325263977
			}
		},
		{
			"doubleSided":true,
			"name":"black plactic",
			"pbrMetallicRoughness":{
				"baseColorFactor":[
					0,
					0,
					0,
					1
				],
				"metallicFactor":0.028985507786273956,
				"roughnessFactor":0.4468598961830139
			}
		},
		{
			"doubleSided":true,
			"name":"metal",
			"pbrMetallicRoughness":{
				"baseColorFactor":[
					0.800000011920929,
					0.800000011920929,
					0.800000011920929,
					1
				]
			}
		}
	],
	"meshes":[
		{
			"name":"Mesh",
			"primitives":[
				{
					"attributes":{
						"POSITION":0,
						"NORMAL":1,
						"TEXCOORD_0":2
					},
					"indices":3,
					"material":0
				}
			]
		},
		{
			"name":"Cube.057",
			"primitives":[
				{
					"attributes":{
						"POSITION":4,
						"NORMAL":5,
						"TEXCOORD_0":6
					},
					"indices":7,
					"material":1
				}
			]
		},
		{
			"name":"Cube.056",
			"primitives":[
				{
					"attributes":{
						"POSITION":8,
						"NORMAL":9,
						"TEXCOORD_0":10
					},
					"indices":11,
					"material":1
				}
			]
		},
		{
			"name":"Cube.055",
			"primitives":[
				{
					"attributes":{
						"POSITION":12,
						"NORMAL":13,
						"TEXCOORD_0":14
					},
					"indices":15,
					"material":1
				}
			]
		},
		{
			"name":"Cube.054",
			"primitives":[
				{
					"attributes":{
						"POSITION":16,
						"NORMAL":17,
						"TEXCOORD_0":18
					},
					"indices":19,
					"material":1
				}
			]
		},
		{
			"name":"Kostka.003",
			"primitives":[
				{
					"attributes":{
						"POSITION":20,
						"NORMAL":21,
						"TEXCOORD_0":22,
						"TEXCOORD_1":23
					},
					"indices":24,
					"material":2
				}
			]
		},
		{
			"name":"Plane.008",
			"primitives":[
				{
					"attributes":{
						"POSITION":25,
						"NORMAL":26,
						"TEXCOORD_0":27
					},
					"indices":28,
					"material":3
				},
				{
					"attributes":{
						"POSITION":29,
						"NORMAL":30,
						"TEXCOORD_0":31
					},
					"indices":32,
					"material":4
				},
				{
					"attributes":{
						"POSITION":33,
						"NORMAL":34,
						"TEXCOORD_0":35
					},
					"indices":36,
					"material":5
				},
				{
					"attributes":{
						"POSITION":37,
						"NORMAL":38,
						"TEXCOORD_0":39
					},
					"indices":40,
					"material":6
				},
				{
					"attributes":{
						"POSITION":41,
						"NORMAL":42,
						"TEXCOORD_0":43
					},
					"indices":44,
					"material":7
				},
				{
					"attributes":{
						"POSITION":45,
						"NORMAL":46,
						"TEXCOORD_0":47
					},
					"indices":48,
					"material":8
				}
			]
		}
	],
	"textures":[
		{
			"sampler":0,
			"source":0
		},
		{
			"sampler":0,
			"source":1
		},
		{
			"sampler":0,
			"source":2
		},
		{
			"sampler":0,
			"source":3
		},
		{
			"sampler":0,
			"source":4
		},
		{
			"sampler":0,
			"source":5
		},
		{
			"sampler":0,
			"source":6
		}
	],
	"images":[
		{
			"mimeType":"image/jpeg",
			"name":"Speakers_m_Normal_GL",
			"uri":"Speakers_m_Normal_GL.jpg"
		},
		{
			"mimeType":"image/jpeg",
			"name":"Speakers_m_Base_color",
			"uri":"Speakers_m_Base_color.jpg"
		},
		{
			"mimeType":"image/png",
			"name":"Speakers_m_Roughness",
			"uri":"Speakers_m_Roughness.png"
		},
		{
			"mimeType":"image/png",
			"name":"Texture",
			"uri":"Texture.png"
		},
		{
			"mimeType":"image/jpeg",
			"name":"desk-wood-normal",
			"uri":"desk-wood-normal.jpg"
		},
		{
			"mimeType":"image/png",
			"name":"desk-wood-ao-desk-wood-roughness",
			"uri":"desk-wood-ao-desk-wood-roughness.png"
		},
		{
			"mimeType":"image/jpeg",
			"name":"desk-wood-diffuse",
			"uri":"desk-wood-diffuse.jpg"
		}
	],
	"accessors":[
		{
			"bufferView":0,
			"componentType":5126,
			"count":2731,
			"max":[
				0.041508760303258896,
				0.153439462184906,
				0.05144832655787468
			],
			"min":[
				-0.041508760303258896,
				-3.160873529850505e-05,
				-0.05067787691950798
			],
			"type":"VEC3"
		},
		{
			"bufferView":1,
			"componentType":5126,
			"count":2731,
			"type":"VEC3"
		},
		{
			"bufferView":2,
			"componentType":5126,
			"count":2731,
			"type":"VEC2"
		},
		{
			"bufferView":3,
			"componentType":5123,
			"count":14424,
			"type":"SCALAR"
		},
		{
			"bufferView":4,
			"componentType":5126,
			"count":110,
			"max":[
				0.16097508370876312,
				0.2673987150192261,
				0.052032679319381714
			],
			"min":[
				-0.16097508370876312,
				-0.006170149892568588,
				-0.08852753788232803
			],
			"type":"VEC3"
		},
		{
			"bufferView":5,
			"componentType":5126,
			"count":110,
			"type":"VEC3"
		},
		{
			"bufferView":6,
			"componentType":5126,
			"count":110,
			"type":"VEC2"
		},
		{
			"bufferView":7,
			"componentType":5123,
			"count":192,
			"type":"SCALAR"
		},
		{
			"bufferView":8,
			"componentType":5126,
			"count":56,
			"max":[
				0.253512978553772,
				0.009988149628043175,
				0.130833238363266
			],
			"min":[
				-0.253512978553772,
				-0.002301120664924383,
				-0.04841191694140434
			],
			"type":"VEC3"
		},
		{
			"bufferView":9,
			"componentType":5126,
			"count":56,
			"type":"VEC3"
		},
		{
			"bufferView":10,
			"componentType":5126,
			"count":56,
			"type":"VEC2"
		},
		{
			"bufferView":11,
			"componentType":5123,
			"count":84,
			"type":"SCALAR"
		},
		{
			"bufferView":12,
			"componentType":5126,
			"count":226,
			"max":[
				0.020479602739214897,
				0.012640684843063354,
				0.05002029985189438
			],
			"min":[
				-0.020479602739214897,
				-0.012640684843063354,
				-0.055428825318813324
			],
			"type":"VEC3"
		},
		{
			"bufferView":13,
			"componentType":5126,
			"count":226,
			"type":"VEC3"
		},
		{
			"bufferView":14,
			"componentType":5126,
			"count":226,
			"type":"VEC2"
		},
		{
			"bufferView":15,
			"componentType":5123,
			"count":372,
			"type":"SCALAR"
		},
		{
			"bufferView":16,
			"componentType":5126,
			"count":1582,
			"max":[
				0.33600902557373047,
				0.1819102019071579,
				0.07556575536727905
			],
			"min":[
				-0.33600905537605286,
				-0.18191027641296387,
				-0.0064908466301858425
			],
			"type":"VEC3"
		},
		{
			"bufferView":17,
			"componentType":5126,
			"count":1582,
			"type":"VEC3"
		},
		{
			"bufferView":18,
			"componentType":5126,
			"count":1582,
			"type":"VEC2"
		},
		{
			"bufferView":19,
			"componentType":5123,
			"count":2802,
			"type":"SCALAR"
		},
		{
			"bufferView":20,
			"componentType":5126,
			"count":768,
			"max":[
				0.3450000584125519,
				0.6899999380111694,
				0.2500000298023224
			],
			"min":[
				-0.3450000286102295,
				0,
				-0.2500000298023224
			],
			"type":"VEC3"
		},
		{
			"bufferView":21,
			"componentType":5126,
			"count":768,
			"type":"VEC3"
		},
		{
			"bufferView":22,
			"componentType":5126,
			"count":768,
			"type":"VEC2"
		},
		{
			"bufferView":23,
			"componentType":5126,
			"count":768,
			"type":"VEC2"
		},
		{
			"bufferView":24,
			"componentType":5123,
			"count":2736,
			"type":"SCALAR"
		},
		{
			"bufferView":25,
			"componentType":5126,
			"count":77670,
			"max":[
				2.1582753658294678,
				3.499417304992676,
				4.73219633102417
			],
			"min":[
				-2.0657663345336914,
				-0.521675169467926,
				-3.3967459201812744
			],
			"type":"VEC3"
		},
		{
			"bufferView":26,
			"componentType":5126,
			"count":77670,
			"type":"VEC3"
		},
		{
			"bufferView":27,
			"componentType":5126,
			"count":77670,
			"type":"VEC2"
		},
		{
			"bufferView":28,
			"componentType":5125,
			"count":387402,
			"type":"SCALAR"
		},
		{
			"bufferView":29,
			"componentType":5126,
			"count":84216,
			"max":[
				2.162865400314331,
				3.51348614692688,
				7.2671966552734375
			],
			"min":[
				-2.0703563690185547,
				-0.5076757669448853,
				-3.4279801845550537
			],
			"type":"VEC3"
		},
		{
			"bufferView":30,
			"componentType":5126,
			"count":84216,
			"type":"VEC3"
		},
		{
			"bufferView":31,
			"componentType":5126,
			"count":84216,
			"type":"VEC2"
		},
		{
			"bufferView":32,
			"componentType":5125,
			"count":494712,
			"type":"SCALAR"
		},
		{
			"bufferView":33,
			"componentType":5126,
			"count":9334,
			"max":[
				1.614177942276001,
				1.5787272453308105,
				4.639758110046387
			],
			"min":[
				-1.5152043104171753,
				0.18294700980186462,
				1.703453540802002
			],
			"type":"VEC3"
		},
		{
			"bufferView":34,
			"componentType":5126,
			"count":9334,
			"type":"VEC3"
		},
		{
			"bufferView":35,
			"componentType":5126,
			"count":9334,
			"type":"VEC2"
		},
		{
			"bufferView":36,
			"componentType":5123,
			"count":43230,
			"type":"SCALAR"
		},
		{
			"bufferView":37,
			"componentType":5126,
			"count":8718,
			"max":[
				0.8733237385749817,
				0.389209121465683,
				-0.4020376205444336
			],
			"min":[
				-0.851655900478363,
				-0.16286121308803558,
				-1.8934221267700195
			],
			"type":"VEC3"
		},
		{
			"bufferView":38,
			"componentType":5126,
			"count":8718,
			"type":"VEC3"
		},
		{
			"bufferView":39,
			"componentType":5126,
			"count":8718,
			"type":"VEC2"
		},
		{
			"bufferView":40,
			"componentType":5123,
			"count":52224,
			"type":"SCALAR"
		},
		{
			"bufferView":41,
			"componentType":5126,
			"count":108226,
			"max":[
				2.2694449424743652,
				3.2725870609283447,
				8.173938751220703
			],
			"min":[
				-2.253267765045166,
				-0.6951834559440613,
				4.311903953552246
			],
			"type":"VEC3"
		},
		{
			"bufferView":42,
			"componentType":5126,
			"count":108226,
			"type":"VEC3"
		},
		{
			"bufferView":43,
			"componentType":5126,
			"count":108226,
			"type":"VEC2"
		},
		{
			"bufferView":44,
			"componentType":5125,
			"count":587928,
			"type":"SCALAR"
		},
		{
			"bufferView":45,
			"componentType":5126,
			"count":168,
			"max":[
				1.970785140991211,
				2.474609613418579,
				3.9458699226379395
			],
			"min":[
				-1.8782755136489868,
				2.254958152770996,
				3.5558717250823975
			],
			"type":"VEC3"
		},
		{
			"bufferView":46,
			"componentType":5126,
			"count":168,
			"type":"VEC3"
		},
		{
			"bufferView":47,
			"componentType":5126,
			"count":168,
			"type":"VEC2"
		},
		{
			"bufferView":48,
			"componentType":5123,
			"count":492,
			"type":"SCALAR"
		}
	],
	"bufferViews":[
		{
			"buffer":0,
			"byteLength":32772,
			"byteOffset":0,
			"target":34962
		},
		{
			"buffer":0,
			"byteLength":32772,
			"byteOffset":32772,
			"target":34962
		},
		{
			"buffer":0,
			"byteLength":21848,
			"byteOffset":65544,
			"target":34962
		},
		{
			"buffer":0,
			"byteLength":28848,
			"byteOffset":87392,
			"target":34963
		},
		{
			"buffer":0,
			"byteLength":1320,
			"byteOffset":116240,
			"target":34962
		},
		{
			"buffer":0,
			"byteLength":1320,
			"byteOffset":117560,
			"target":34962
		},
		{
			"buffer":0,
			"byteLength":880,
			"byteOffset":118880,
			"target":34962
		},
		{
			"buffer":0,
			"byteLength":384,
			"byteOffset":119760,
			"target":34963
		},
		{
			"buffer":0,
			"byteLength":672,
			"byteOffset":120144,
			"target":34962
		},
		{
			"buffer":0,
			"byteLength":672,
			"byteOffset":120816,
			"target":34962
		},
		{
			"buffer":0,
			"byteLength":448,
			"byteOffset":121488,
			"target":34962
		},
		{
			"buffer":0,
			"byteLength":168,
			"byteOffset":121936,
			"target":34963
		},
		{
			"buffer":0,
			"byteLength":2712,
			"byteOffset":122104,
			"target":34962
		},
		{
			"buffer":0,
			"byteLength":2712,
			"byteOffset":124816,
			"target":34962
		},
		{
			"buffer":0,
			"byteLength":1808,
			"byteOffset":127528,
			"target":34962
		},
		{
			"buffer":0,
			"byteLength":744,
			"byteOffset":129336,
			"target":34963
		},
		{
			"buffer":0,
			"byteLength":18984,
			"byteOffset":130080,
			"target":34962
		},
		{
			"buffer":0,
			"byteLength":18984,
			"byteOffset":149064,
			"target":34962
		},
		{
			"buffer":0,
			"byteLength":12656,
			"byteOffset":168048,
			"target":34962
		},
		{
			"buffer":0,
			"byteLength":5604,
			"byteOffset":180704,
			"target":34963
		},
		{
			"buffer":0,
			"byteLength":9216,
			"byteOffset":186308,
			"target":34962
		},
		{
			"buffer":0,
			"byteLength":9216,
			"byteOffset":195524,
			"target":34962
		},
		{
			"buffer":0,
			"byteLength":6144,
			"byteOffset":204740,
			"target":34962
		},
		{
			"buffer":0,
			"byteLength":6144,
			"byteOffset":210884,
			"target":34962
		},
		{
			"buffer":0,
			"byteLength":5472,
			"byteOffset":217028,
			"target":34963
		},
		{
			"buffer":0,
			"byteLength":932040,
			"byteOffset":222500,
			"target":34962
		},
		{
			"buffer":0,
			"byteLength":932040,
			"byteOffset":1154540,
			"target":34962
		},
		{
			"buffer":0,
			"byteLength":621360,
			"byteOffset":2086580,
			"target":34962
		},
		{
			"buffer":0,
			"byteLength":1549608,
			"byteOffset":2707940,
			"target":34963
		},
		{
			"buffer":0,
			"byteLength":1010592,
			"byteOffset":4257548,
			"target":34962
		},
		{
			"buffer":0,
			"byteLength":1010592,
			"byteOffset":5268140,
			"target":34962
		},
		{
			"buffer":0,
			"byteLength":673728,
			"byteOffset":6278732,
			"target":34962
		},
		{
			"buffer":0,
			"byteLength":1978848,
			"byteOffset":6952460,
			"target":34963
		},
		{
			"buffer":0,
			"byteLength":112008,
			"byteOffset":8931308,
			"target":34962
		},
		{
			"buffer":0,
			"byteLength":112008,
			"byteOffset":9043316,
			"target":34962
		},
		{
			"buffer":0,
			"byteLength":74672,
			"byteOffset":9155324,
			"target":34962
		},
		{
			"buffer":0,
			"byteLength":86460,
			"byteOffset":9229996,
			"target":34963
		},
		{
			"buffer":0,
			"byteLength":104616,
			"byteOffset":9316456,
			"target":34962
		},
		{
			"buffer":0,
			"byteLength":104616,
			"byteOffset":9421072,
			"target":34962
		},
		{
			"buffer":0,
			"byteLength":69744,
			"byteOffset":9525688,
			"target":34962
		},
		{
			"buffer":0,
			"byteLength":104448,
			"byteOffset":9595432,
			"target":34963
		},
		{
			"buffer":0,
			"byteLength":1298712,
			"byteOffset":9699880,
			"target":34962
		},
		{
			"buffer":0,
			"byteLength":1298712,
			"byteOffset":10998592,
			"target":34962
		},
		{
			"buffer":0,
			"byteLength":865808,
			"byteOffset":12297304,
			"target":34962
		},
		{
			"buffer":0,
			"byteLength":2351712,
			"byteOffset":13163112,
			"target":34963
		},
		{
			"buffer":0,
			"byteLength":2016,
			"byteOffset":15514824,
			"target":34962
		},
		{
			"buffer":0,
			"byteLength":2016,
			"byteOffset":15516840,
			"target":34962
		},
		{
			"buffer":0,
			"byteLength":1344,
			"byteOffset":15518856,
			"target":34962
		},
		{
			"buffer":0,
			"byteLength":984,
			"byteOffset":15520200,
			"target":34963
		}
	],
	"samplers":[
		{
			"magFilter":9729,
			"minFilter":9987
		}
	],
	"buffers":[
		{
			"byteLength":15521184,
			"uri":"untitled.bin"
		}
	]
}
