{
	"asset":{
		"generator":"Khronos glTF Blender I/O v3.6.28",
		"version":"2.0"
	},
	"extensionsUsed":[
		"KHR_materials_specular",
		"KHR_materials_ior",
		"KHR_texture_transform"
	],
	"extensionsRequired":[
		"KHR_texture_transform"
	],
	"scene":0,
	"scenes":[
		{
			"name":"Scene",
			"nodes":[
				1,
				4,
				5,
				6,
				7,
				9,
				10
			]
		}
	],
	"nodes":[
		{
			"mesh":0,
			"name":"Speaker",
			"translation":[
				-0.29762086272239685,
				0,
				-0.03803366422653198
			]
		},
		{
			"children":[
				0
			],
			"name":"Speaker PC"
		},
		{
			"mesh":1,
			"name":"Mouse",
			"rotation":[
				0.004531656391918659,
				0,
				0,
				0.9999897480010986
			],
			"scale":[
				1.4792733192443848,
				1,
				1
			],
			"translation":[
				0.28625258803367615,
				0.01300344243645668,
				0.13927100598812103
			]
		},
		{
			"mesh":2,
			"name":"Screen",
			"rotation":[
				-0.028360990807414055,
				0,
				0,
				0.9995977878570557
			],
			"translation":[
				0,
				0.2928347885608673,
				-0.18173861503601074
			]
		},
		{
			"children":[
				2,
				3
			],
			"name":"Sci-fi Low Poly ComputervScreen"
		},
		{
			"mesh":3,
			"name":"Small desk",
			"rotation":[
				0,
				-1,
				0,
				1.6292068494294654e-07
			],
			"translation":[
				0,
				-0.6868372559547424,
				0.01833844743669033
			]
		},
		{
			"name":"Chair"
		},
		{
			"name":"Desk & Chair"
		},
		{
			"mesh":4,
			"name":"Plane",
			"rotation":[
				0,
				-0.694758951663971,
				0.7192426919937134,
				1.1319060178038853e-07
			],
			"scale":[
				0.14143921434879303,
				0.15336932241916656,
				0.10306262224912643
			],
			"translation":[
				0.002316713333129883,
				0.1526723951101303,
				0.6528622508049011
			]
		},
		{
			"children":[
				8
			],
			"name":"Gaming chair/chair"
		},
		{
			"mesh":5,
			"name":"Cube",
			"rotation":[
				-0.0910082459449768,
				0.00016014250286389142,
				1.6077810869319364e-05,
				0.995850145816803
			],
			"scale":[
				1.4818038940429688,
				1.320441722869873,
				1.0986194610595703
			],
			"translation":[
				-0.0009706219425424933,
				0.40261518955230713,
				0.4381197988986969
			]
		}
	],
	"materials":[
		{
			"doubleSided":true,
			"extensions":{
				"KHR_materials_specular":{
					"specularColorFactor":[
						0.711407312601205,
						0.711407312601205,
						0.711407312601205
					]
				},
				"KHR_materials_ior":{
					"ior":1.4500000476837158
				}
			},
			"name":"Speaker_mat",
			"normalTexture":{
				"index":0
			},
			"pbrMetallicRoughness":{
				"baseColorTexture":{
					"index":1
				},
				"metallicFactor":0,
				"metallicRoughnessTexture":{
					"index":2
				}
			}
		},
		{
			"doubleSided":true,
			"name":"Computer",
			"pbrMetallicRoughness":{
				"baseColorTexture":{
					"index":3
				},
				"metallicFactor":0,
				"roughnessFactor":0.5
			}
		},
		{
			"extensions":{
				"KHR_materials_specular":{
					"specularColorFactor":[
						0.14228146252024101,
						0.14228146252024101,
						0.14228146252024101
					]
				},
				"KHR_materials_ior":{
					"ior":1.4500000476837158
				}
			},
			"name":"Desk wood",
			"normalTexture":{
				"extensions":{
					"KHR_texture_transform":{
						"offset":[
							0,
							-1
						],
						"scale":[
							2,
							2
						]
					}
				},
				"index":4,
				"scale":0.75,
				"texCoord":1
			},
			"occlusionTexture":{
				"extensions":{
					"KHR_texture_transform":{
						"offset":[
							0,
							-1
						],
						"scale":[
							2,
							2
						]
					}
				},
				"index":5,
				"texCoord":1
			},
			"pbrMetallicRoughness":{
				"baseColorTexture":{
					"extensions":{
						"KHR_texture_transform":{
							"offset":[
								0,
								-1
							],
							"scale":[
								2,
								2
							]
						}
					},
					"index":6,
					"texCoord":1
				},
				"metallicFactor":0,
				"metallicRoughnessTexture":{
					"extensions":{
						"KHR_texture_transform":{
							"offset":[
								0,
								-1
							],
							"scale":[
								2,
								2
							]
						}
					},
					"index":5,
					"texCoord":1
				}
			}
		},
		{
			"doubleSided":true,
			"name":"black skin",
			"pbrMetallicRoughness":{
				"baseColorFactor":[
					0.00424113217741251,
					0.00424113217741251,
					0.00424113217741251,
					1
				],
				"metallicFactor":0
			}
		},
		{
			"doubleSided":true,
			"name":"outline",
			"pbrMetallicRoughness":{
				"baseColorFactor":[
					0.04572528973221779,
					0.5278448462486267,
					1,
					1
				],
				"metallicFactor":0,
				"roughnessFactor":0.699999988079071
			}
		},
		{
			"doubleSided":true,
			"name":"Material.021",
			"pbrMetallicRoughness":{
				"baseColorFactor":[
					0.04202645644545555,
					0.04202645644545555,
					0.04202645644545555,
					1
				],
				"roughnessFactor":0.4227053225040436
			}
		},
		{
			"doubleSided":true,
			"name":"Material.022",
			"pbrMetallicRoughness":{
				"baseColorFactor":[
					0,
					0,
					0,
					1
				],
				"metallicFactor":0,
				"roughnessFactor":0.804611325263977
			}
		},
		{
			"doubleSided":true,
			"name":"black plactic",
			"pbrMetallicRoughness":{
				"baseColorFactor":[
					0,
					0,
					0,
					1
				],
				"metallicFactor":0.028985507786273956,
				"roughnessFactor":0.4468598961830139
			}
		},
		{
			"doubleSided":true,
			"name":"metal",
			"pbrMetallicRoughness":{
				"baseColorFactor":[
					0.800000011920929,
					0.800000011920929,
					0.800000011920929,
					1
				]
			}
		},
		{
			"doubleSided":true,
			"name":"Material.011",
			"pbrMetallicRoughness":{
				"baseColorFactor":[
					0.014662188477814198,
					0.011872660368680954,
					0.012151292525231838,
					1
				],
				"metallicFactor":0.7666667103767395,
				"roughnessFactor":0.6666666865348816
			}
		},
		{
			"doubleSided":true,
			"name":"Teeth.003",
			"pbrMetallicRoughness":{
				"metallicFactor":0,
				"roughnessFactor":0.5
			}
		},
		{
			"doubleSided":true,
			"extensions":{
				"KHR_materials_specular":{
					"specularColorFactor":[
						1,
						1,
						1
					]
				},
				"KHR_materials_ior":{
					"ior":1
				}
			},
			"name":"None",
			"pbrMetallicRoughness":{
				"baseColorTexture":{
					"index":7
				},
				"metallicFactor":0
			}
		}
	],
	"meshes":[
		{
			"name":"Mesh",
			"primitives":[
				{
					"attributes":{
						"POSITION":0,
						"NORMAL":1,
						"TEXCOORD_0":2
					},
					"indices":3,
					"material":0
				}
			]
		},
		{
			"name":"Cube.055",
			"primitives":[
				{
					"attributes":{
						"POSITION":4,
						"NORMAL":5,
						"TEXCOORD_0":6
					},
					"indices":7,
					"material":1
				}
			]
		},
		{
			"name":"Cube.054",
			"primitives":[
				{
					"attributes":{
						"POSITION":8,
						"NORMAL":9,
						"TEXCOORD_0":10
					},
					"indices":11,
					"material":1
				}
			]
		},
		{
			"name":"Kostka.003",
			"primitives":[
				{
					"attributes":{
						"POSITION":12,
						"NORMAL":13,
						"TEXCOORD_0":14,
						"TEXCOORD_1":15
					},
					"indices":16,
					"material":2
				}
			]
		},
		{
			"name":"Plane.010",
			"primitives":[
				{
					"attributes":{
						"POSITION":17,
						"NORMAL":18,
						"TEXCOORD_0":19
					},
					"indices":20,
					"material":3
				},
				{
					"attributes":{
						"POSITION":21,
						"NORMAL":22,
						"TEXCOORD_0":23
					},
					"indices":24,
					"material":4
				},
				{
					"attributes":{
						"POSITION":25,
						"NORMAL":26,
						"TEXCOORD_0":27
					},
					"indices":28,
					"material":5
				},
				{
					"attributes":{
						"POSITION":29,
						"NORMAL":30,
						"TEXCOORD_0":31
					},
					"indices":32,
					"material":6
				},
				{
					"attributes":{
						"POSITION":33,
						"NORMAL":34,
						"TEXCOORD_0":35
					},
					"indices":36,
					"material":7
				},
				{
					"attributes":{
						"POSITION":37,
						"NORMAL":38,
						"TEXCOORD_0":39
					},
					"indices":40,
					"material":8
				}
			]
		},
		{
			"name":"Cube.002",
			"primitives":[
				{
					"attributes":{
						"POSITION":41,
						"NORMAL":42,
						"TEXCOORD_0":43
					},
					"indices":44,
					"material":9
				},
				{
					"attributes":{
						"POSITION":45,
						"NORMAL":46,
						"TEXCOORD_0":47
					},
					"indices":48,
					"material":10
				},
				{
					"attributes":{
						"POSITION":49,
						"NORMAL":50,
						"TEXCOORD_0":51
					},
					"indices":52,
					"material":11
				}
			]
		}
	],
	"textures":[
		{
			"sampler":0,
			"source":0
		},
		{
			"sampler":0,
			"source":1
		},
		{
			"sampler":0,
			"source":2
		},
		{
			"sampler":0,
			"source":3
		},
		{
			"sampler":0,
			"source":4
		},
		{
			"sampler":0,
			"source":5
		},
		{
			"sampler":0,
			"source":6
		},
		{
			"sampler":0,
			"source":7
		}
	],
	"images":[
		{
			"mimeType":"image/jpeg",
			"name":"Speakers_m_Normal_GL",
			"uri":"Speakers_m_Normal_GL.jpg"
		},
		{
			"mimeType":"image/jpeg",
			"name":"Speakers_m_Base_color",
			"uri":"Speakers_m_Base_color.jpg"
		},
		{
			"mimeType":"image/png",
			"name":"Speakers_m_Roughness",
			"uri":"Speakers_m_Roughness.png"
		},
		{
			"mimeType":"image/png",
			"name":"Texture",
			"uri":"Texture.png"
		},
		{
			"mimeType":"image/jpeg",
			"name":"desk-wood-normal",
			"uri":"desk-wood-normal.jpg"
		},
		{
			"mimeType":"image/png",
			"name":"desk-wood-ao-desk-wood-roughness",
			"uri":"desk-wood-ao-desk-wood-roughness.png"
		},
		{
			"mimeType":"image/jpeg",
			"name":"desk-wood-diffuse",
			"uri":"desk-wood-diffuse.jpg"
		},
		{
			"mimeType":"image/jpeg",
			"name":"Iron",
			"uri":"Iron.jpg"
		}
	],
	"accessors":[
		{
			"bufferView":0,
			"componentType":5126,
			"count":2731,
			"max":[
				0.041508760303258896,
				0.153439462184906,
				0.05144832655787468
			],
			"min":[
				-0.041508760303258896,
				-3.160873529850505e-05,
				-0.05067787691950798
			],
			"type":"VEC3"
		},
		{
			"bufferView":1,
			"componentType":5126,
			"count":2731,
			"type":"VEC3"
		},
		{
			"bufferView":2,
			"componentType":5126,
			"count":2731,
			"type":"VEC2"
		},
		{
			"bufferView":3,
			"componentType":5123,
			"count":14424,
			"type":"SCALAR"
		},
		{
			"bufferView":4,
			"componentType":5126,
			"count":282,
			"max":[
				0.023689407855272293,
				0.012615210376679897,
				0.05002029985189438
			],
			"min":[
				-0.3648856580257416,
				-0.013308963738381863,
				-0.1940896362066269
			],
			"type":"VEC3"
		},
		{
			"bufferView":5,
			"componentType":5126,
			"count":282,
			"type":"VEC3"
		},
		{
			"bufferView":6,
			"componentType":5126,
			"count":282,
			"type":"VEC2"
		},
		{
			"bufferView":7,
			"componentType":5123,
			"count":456,
			"type":"SCALAR"
		},
		{
			"bufferView":8,
			"componentType":5126,
			"count":1764,
			"max":[
				0.33600902557373047,
				0.1819102019071579,
				0.09141857922077179
			],
			"min":[
				-0.33600905537605286,
				-0.2969554364681244,
				-0.04543563723564148
			],
			"type":"VEC3"
		},
		{
			"bufferView":9,
			"componentType":5126,
			"count":1764,
			"type":"VEC3"
		},
		{
			"bufferView":10,
			"componentType":5126,
			"count":1764,
			"type":"VEC2"
		},
		{
			"bufferView":11,
			"componentType":5123,
			"count":2994,
			"type":"SCALAR"
		},
		{
			"bufferView":12,
			"componentType":5126,
			"count":825,
			"max":[
				0.3450000584125519,
				0.6899999380111694,
				0.2500000298023224
			],
			"min":[
				-0.3450000286102295,
				0,
				-0.2500000298023224
			],
			"type":"VEC3"
		},
		{
			"bufferView":13,
			"componentType":5126,
			"count":825,
			"type":"VEC3"
		},
		{
			"bufferView":14,
			"componentType":5126,
			"count":825,
			"type":"VEC2"
		},
		{
			"bufferView":15,
			"componentType":5126,
			"count":825,
			"type":"VEC2"
		},
		{
			"bufferView":16,
			"componentType":5123,
			"count":2736,
			"type":"SCALAR"
		},
		{
			"bufferView":17,
			"componentType":5126,
			"count":83023,
			"max":[
				2.1582753658294678,
				3.499417304992676,
				4.73219633102417
			],
			"min":[
				-2.0657663345336914,
				-0.521675169467926,
				-3.3967459201812744
			],
			"type":"VEC3"
		},
		{
			"bufferView":18,
			"componentType":5126,
			"count":83023,
			"type":"VEC3"
		},
		{
			"bufferView":19,
			"componentType":5126,
			"count":83023,
			"type":"VEC2"
		},
		{
			"bufferView":20,
			"componentType":5125,
			"count":387402,
			"type":"SCALAR"
		},
		{
			"bufferView":21,
			"componentType":5126,
			"count":84217,
			"max":[
				2.162865400314331,
				3.51348614692688,
				7.2671966552734375
			],
			"min":[
				-2.0703563690185547,
				-0.5076757669448853,
				-3.4279801845550537
			],
			"type":"VEC3"
		},
		{
			"bufferView":22,
			"componentType":5126,
			"count":84217,
			"type":"VEC3"
		},
		{
			"bufferView":23,
			"componentType":5126,
			"count":84217,
			"type":"VEC2"
		},
		{
			"bufferView":24,
			"componentType":5125,
			"count":494712,
			"type":"SCALAR"
		},
		{
			"bufferView":25,
			"componentType":5126,
			"count":9856,
			"max":[
				1.614177942276001,
				1.5787272453308105,
				4.639758110046387
			],
			"min":[
				-1.5152043104171753,
				0.18294700980186462,
				1.703453540802002
			],
			"type":"VEC3"
		},
		{
			"bufferView":26,
			"componentType":5126,
			"count":9856,
			"type":"VEC3"
		},
		{
			"bufferView":27,
			"componentType":5126,
			"count":9856,
			"type":"VEC2"
		},
		{
			"bufferView":28,
			"componentType":5123,
			"count":43230,
			"type":"SCALAR"
		},
		{
			"bufferView":29,
			"componentType":5126,
			"count":8718,
			"max":[
				0.8733237385749817,
				0.389209121465683,
				-0.4020376205444336
			],
			"min":[
				-0.851655900478363,
				-0.16286121308803558,
				-1.8934221267700195
			],
			"type":"VEC3"
		},
		{
			"bufferView":30,
			"componentType":5126,
			"count":8718,
			"type":"VEC3"
		},
		{
			"bufferView":31,
			"componentType":5126,
			"count":8718,
			"type":"VEC2"
		},
		{
			"bufferView":32,
			"componentType":5123,
			"count":52224,
			"type":"SCALAR"
		},
		{
			"bufferView":33,
			"componentType":5126,
			"count":111673,
			"max":[
				2.2694449424743652,
				3.2725870609283447,
				8.173938751220703
			],
			"min":[
				-2.253267765045166,
				-0.6951834559440613,
				4.311903953552246
			],
			"type":"VEC3"
		},
		{
			"bufferView":34,
			"componentType":5126,
			"count":111673,
			"type":"VEC3"
		},
		{
			"bufferView":35,
			"componentType":5126,
			"count":111673,
			"type":"VEC2"
		},
		{
			"bufferView":36,
			"componentType":5125,
			"count":587928,
			"type":"SCALAR"
		},
		{
			"bufferView":37,
			"componentType":5126,
			"count":168,
			"max":[
				1.970785140991211,
				2.474609613418579,
				3.9458699226379395
			],
			"min":[
				-1.8782755136489868,
				2.254958152770996,
				3.5558717250823975
			],
			"type":"VEC3"
		},
		{
			"bufferView":38,
			"componentType":5126,
			"count":168,
			"type":"VEC3"
		},
		{
			"bufferView":39,
			"componentType":5126,
			"count":168,
			"type":"VEC2"
		},
		{
			"bufferView":40,
			"componentType":5123,
			"count":492,
			"type":"SCALAR"
		},
		{
			"bufferView":41,
			"componentType":5126,
			"count":538586,
			"max":[
				0.0670432597398758,
				0.03432975709438324,
				0.14085209369659424
			],
			"min":[
				-0.06677460670471191,
				-0.0006122291088104248,
				0.010399281978607178
			],
			"type":"VEC3"
		},
		{
			"bufferView":42,
			"componentType":5126,
			"count":538586,
			"type":"VEC3"
		},
		{
			"bufferView":43,
			"componentType":5126,
			"count":538586,
			"type":"VEC2"
		},
		{
			"bufferView":44,
			"componentType":5125,
			"count":584904,
			"type":"SCALAR"
		},
		{
			"bufferView":45,
			"componentType":5126,
			"count":97214,
			"max":[
				0.06435255706310272,
				0.03827013075351715,
				0.011295467615127563
			],
			"min":[
				-0.0643467903137207,
				3.337860107421875e-06,
				-0.007208913564682007
			],
			"type":"VEC3"
		},
		{
			"bufferView":46,
			"componentType":5126,
			"count":97214,
			"type":"VEC3"
		},
		{
			"bufferView":47,
			"componentType":5126,
			"count":97214,
			"type":"VEC2"
		},
		{
			"bufferView":48,
			"componentType":5125,
			"count":569547,
			"type":"SCALAR"
		},
		{
			"bufferView":49,
			"componentType":5126,
			"count":35454,
			"max":[
				0.23332758247852325,
				0.13103340566158295,
				0.19123566150665283
			],
			"min":[
				-0.18623009324073792,
				-0.7944391965866089,
				-0.7222509384155273
			],
			"type":"VEC3"
		},
		{
			"bufferView":50,
			"componentType":5126,
			"count":35454,
			"type":"VEC3"
		},
		{
			"bufferView":51,
			"componentType":5126,
			"count":35454,
			"type":"VEC2"
		},
		{
			"bufferView":52,
			"componentType":5123,
			"count":174516,
			"type":"SCALAR"
		}
	],
	"bufferViews":[
		{
			"buffer":0,
			"byteLength":32772,
			"byteOffset":0,
			"target":34962
		},
		{
			"buffer":0,
			"byteLength":32772,
			"byteOffset":32772,
			"target":34962
		},
		{
			"buffer":0,
			"byteLength":21848,
			"byteOffset":65544,
			"target":34962
		},
		{
			"buffer":0,
			"byteLength":28848,
			"byteOffset":87392,
			"target":34963
		},
		{
			"buffer":0,
			"byteLength":3384,
			"byteOffset":116240,
			"target":34962
		},
		{
			"buffer":0,
			"byteLength":3384,
			"byteOffset":119624,
			"target":34962
		},
		{
			"buffer":0,
			"byteLength":2256,
			"byteOffset":123008,
			"target":34962
		},
		{
			"buffer":0,
			"byteLength":912,
			"byteOffset":125264,
			"target":34963
		},
		{
			"buffer":0,
			"byteLength":21168,
			"byteOffset":126176,
			"target":34962
		},
		{
			"buffer":0,
			"byteLength":21168,
			"byteOffset":147344,
			"target":34962
		},
		{
			"buffer":0,
			"byteLength":14112,
			"byteOffset":168512,
			"target":34962
		},
		{
			"buffer":0,
			"byteLength":5988,
			"byteOffset":182624,
			"target":34963
		},
		{
			"buffer":0,
			"byteLength":9900,
			"byteOffset":188612,
			"target":34962
		},
		{
			"buffer":0,
			"byteLength":9900,
			"byteOffset":198512,
			"target":34962
		},
		{
			"buffer":0,
			"byteLength":6600,
			"byteOffset":208412,
			"target":34962
		},
		{
			"buffer":0,
			"byteLength":6600,
			"byteOffset":215012,
			"target":34962
		},
		{
			"buffer":0,
			"byteLength":5472,
			"byteOffset":221612,
			"target":34963
		},
		{
			"buffer":0,
			"byteLength":996276,
			"byteOffset":227084,
			"target":34962
		},
		{
			"buffer":0,
			"byteLength":996276,
			"byteOffset":1223360,
			"target":34962
		},
		{
			"buffer":0,
			"byteLength":664184,
			"byteOffset":2219636,
			"target":34962
		},
		{
			"buffer":0,
			"byteLength":1549608,
			"byteOffset":2883820,
			"target":34963
		},
		{
			"buffer":0,
			"byteLength":1010604,
			"byteOffset":4433428,
			"target":34962
		},
		{
			"buffer":0,
			"byteLength":1010604,
			"byteOffset":5444032,
			"target":34962
		},
		{
			"buffer":0,
			"byteLength":673736,
			"byteOffset":6454636,
			"target":34962
		},
		{
			"buffer":0,
			"byteLength":1978848,
			"byteOffset":7128372,
			"target":34963
		},
		{
			"buffer":0,
			"byteLength":118272,
			"byteOffset":9107220,
			"target":34962
		},
		{
			"buffer":0,
			"byteLength":118272,
			"byteOffset":9225492,
			"target":34962
		},
		{
			"buffer":0,
			"byteLength":78848,
			"byteOffset":9343764,
			"target":34962
		},
		{
			"buffer":0,
			"byteLength":86460,
			"byteOffset":9422612,
			"target":34963
		},
		{
			"buffer":0,
			"byteLength":104616,
			"byteOffset":9509072,
			"target":34962
		},
		{
			"buffer":0,
			"byteLength":104616,
			"byteOffset":9613688,
			"target":34962
		},
		{
			"buffer":0,
			"byteLength":69744,
			"byteOffset":9718304,
			"target":34962
		},
		{
			"buffer":0,
			"byteLength":104448,
			"byteOffset":9788048,
			"target":34963
		},
		{
			"buffer":0,
			"byteLength":1340076,
			"byteOffset":9892496,
			"target":34962
		},
		{
			"buffer":0,
			"byteLength":1340076,
			"byteOffset":11232572,
			"target":34962
		},
		{
			"buffer":0,
			"byteLength":893384,
			"byteOffset":12572648,
			"target":34962
		},
		{
			"buffer":0,
			"byteLength":2351712,
			"byteOffset":13466032,
			"target":34963
		},
		{
			"buffer":0,
			"byteLength":2016,
			"byteOffset":15817744,
			"target":34962
		},
		{
			"buffer":0,
			"byteLength":2016,
			"byteOffset":15819760,
			"target":34962
		},
		{
			"buffer":0,
			"byteLength":1344,
			"byteOffset":15821776,
			"target":34962
		},
		{
			"buffer":0,
			"byteLength":984,
			"byteOffset":15823120,
			"target":34963
		},
		{
			"buffer":0,
			"byteLength":6463032,
			"byteOffset":15824104,
			"target":34962
		},
		{
			"buffer":0,
			"byteLength":6463032,
			"byteOffset":22287136,
			"target":34962
		},
		{
			"buffer":0,
			"byteLength":4308688,
			"byteOffset":28750168,
			"target":34962
		},
		{
			"buffer":0,
			"byteLength":2339616,
			"byteOffset":33058856,
			"target":34963
		},
		{
			"buffer":0,
			"byteLength":1166568,
			"byteOffset":35398472,
			"target":34962
		},
		{
			"buffer":0,
			"byteLength":1166568,
			"byteOffset":36565040,
			"target":34962
		},
		{
			"buffer":0,
			"byteLength":777712,
			"byteOffset":37731608,
			"target":34962
		},
		{
			"buffer":0,
			"byteLength":2278188,
			"byteOffset":38509320,
			"target":34963
		},
		{
			"buffer":0,
			"byteLength":425448,
			"byteOffset":40787508,
			"target":34962
		},
		{
			"buffer":0,
			"byteLength":425448,
			"byteOffset":41212956,
			"target":34962
		},
		{
			"buffer":0,
			"byteLength":283632,
			"byteOffset":41638404,
			"target":34962
		},
		{
			"buffer":0,
			"byteLength":349032,
			"byteOffset":41922036,
			"target":34963
		}
	],
	"samplers":[
		{
			"magFilter":9729,
			"minFilter":9987
		}
	],
	"buffers":[
		{
			"byteLength":42271068,
			"uri":"untitled.bin"
		}
	]
}
